<?xml version="1.0" standalone="no"?>
<!DOCTYPE svg PUBLIC "-//W3C//DTD SVG 20010904//EN"
 "http://www.w3.org/TR/2001/REC-SVG-20010904/DTD/svg10.dtd">
<svg version="1.0" xmlns="http://www.w3.org/2000/svg"
 width="48.000000pt" height="48.000000pt" viewBox="0 0 48.000000 48.000000"
 preserveAspectRatio="xMidYMid meet">

<g transform="translate(0.000000,48.000000) scale(0.100000,-0.100000)"
fill="#000000" stroke="none">
<path d="M62 342 l-62 -46 6 -91 c3 -49 7 -96 9 -102 3 -8 21 -13 44 -13 33 0
40 -3 43 -22 3 -23 6 -23 138 -23 132 0 135 0 138 22 3 20 10 23 43 23 23 0
41 5 44 13 2 6 6 53 9 102 l6 91 -65 48 -65 47 -30 -21 c-29 -21 -32 -21 -55
-6 -23 15 -27 15 -50 0 -23 -15 -26 -15 -51 5 -15 12 -29 21 -33 21 -3 -1 -34
-22 -69 -48z m100 4 c16 -12 13 -16 -27 -46 l-45 -34 7 -68 6 -68 -37 0 -36 0
-2 65 c-1 36 -2 71 -2 79 -1 17 82 85 104 85 8 0 23 -6 32 -13z m249 -23 c38
-29 49 -43 45 -58 -3 -11 -6 -46 -6 -77 l0 -58 -36 0 -37 0 6 68 7 68 -45 34
c-40 30 -43 34 -27 46 26 20 38 17 93 -23z m-100 -20 c47 -37 59 -52 55 -68
-3 -11 -6 -50 -6 -87 0 -61 -2 -68 -20 -68 -18 0 -20 7 -20 55 l0 55 -35 0
-35 0 0 -55 0 -55 -65 0 -65 0 -2 75 c-1 41 -2 81 -2 89 -1 15 102 105 121
105 7 1 40 -20 74 -46z"/>
<path d="M160 160 c0 -25 4 -30 25 -30 21 0 25 5 25 30 0 25 -4 30 -25 30 -21
0 -25 -5 -25 -30z"/>
</g>
</svg>
